<mxfile host="app.diagrams.net" agent="Mozilla/5.0 (Windows NT 10.0; Win64; x64) AppleWebKit/537.36 (KHTML, like Gecko) Chrome/126.0.0.0 Safari/537.36" version="24.7.7">
  <diagram name="Page-1" id="bIZ_-rWK1v3Bz6Omkdgx">
    <mxGraphModel dx="954" dy="558" grid="0" gridSize="10" guides="1" tooltips="1" connect="1" arrows="1" fold="1" page="1" pageScale="1" pageWidth="827" pageHeight="1169" math="0" shadow="0">
      <root>
        <mxCell id="0" />
        <mxCell id="1" parent="0" />
        <mxCell id="bVtKSGikTcqubJJ4hTI0-13" value="" style="edgeStyle=orthogonalEdgeStyle;rounded=0;orthogonalLoop=1;jettySize=auto;html=1;" edge="1" parent="1" source="bVtKSGikTcqubJJ4hTI0-1" target="bVtKSGikTcqubJJ4hTI0-2">
          <mxGeometry relative="1" as="geometry" />
        </mxCell>
        <mxCell id="bVtKSGikTcqubJJ4hTI0-1" value="&lt;font style=&quot;font-size: 18px;&quot;&gt;应用层&lt;/font&gt;" style="rounded=1;whiteSpace=wrap;html=1;fillColor=#dae8fc;strokeColor=#99CCFF;gradientColor=none;" vertex="1" parent="1">
          <mxGeometry x="50" y="90" width="120" height="60" as="geometry" />
        </mxCell>
        <mxCell id="bVtKSGikTcqubJJ4hTI0-14" value="" style="edgeStyle=orthogonalEdgeStyle;rounded=0;orthogonalLoop=1;jettySize=auto;html=1;" edge="1" parent="1" source="bVtKSGikTcqubJJ4hTI0-2" target="bVtKSGikTcqubJJ4hTI0-1">
          <mxGeometry relative="1" as="geometry" />
        </mxCell>
        <mxCell id="bVtKSGikTcqubJJ4hTI0-15" value="" style="edgeStyle=orthogonalEdgeStyle;rounded=0;orthogonalLoop=1;jettySize=auto;html=1;" edge="1" parent="1" source="bVtKSGikTcqubJJ4hTI0-2" target="bVtKSGikTcqubJJ4hTI0-3">
          <mxGeometry relative="1" as="geometry" />
        </mxCell>
        <mxCell id="bVtKSGikTcqubJJ4hTI0-2" value="&lt;font style=&quot;font-size: 18px;&quot;&gt;传输层&lt;/font&gt;" style="rounded=1;whiteSpace=wrap;html=1;fillColor=#d5e8d4;strokeColor=#82b366;" vertex="1" parent="1">
          <mxGeometry x="50" y="180" width="120" height="60" as="geometry" />
        </mxCell>
        <mxCell id="bVtKSGikTcqubJJ4hTI0-16" value="" style="edgeStyle=orthogonalEdgeStyle;rounded=0;orthogonalLoop=1;jettySize=auto;html=1;" edge="1" parent="1" source="bVtKSGikTcqubJJ4hTI0-3" target="bVtKSGikTcqubJJ4hTI0-2">
          <mxGeometry relative="1" as="geometry" />
        </mxCell>
        <mxCell id="bVtKSGikTcqubJJ4hTI0-17" value="" style="edgeStyle=orthogonalEdgeStyle;rounded=0;orthogonalLoop=1;jettySize=auto;html=1;" edge="1" parent="1" source="bVtKSGikTcqubJJ4hTI0-3" target="bVtKSGikTcqubJJ4hTI0-5">
          <mxGeometry relative="1" as="geometry" />
        </mxCell>
        <mxCell id="bVtKSGikTcqubJJ4hTI0-3" value="&lt;font style=&quot;font-size: 18px;&quot;&gt;网络层&lt;/font&gt;" style="rounded=1;whiteSpace=wrap;html=1;fillColor=#ffe6cc;strokeColor=#d79b00;" vertex="1" parent="1">
          <mxGeometry x="50" y="270" width="120" height="60" as="geometry" />
        </mxCell>
        <mxCell id="bVtKSGikTcqubJJ4hTI0-19" value="" style="edgeStyle=orthogonalEdgeStyle;rounded=0;orthogonalLoop=1;jettySize=auto;html=1;" edge="1" parent="1" source="bVtKSGikTcqubJJ4hTI0-4" target="bVtKSGikTcqubJJ4hTI0-7">
          <mxGeometry relative="1" as="geometry" />
        </mxCell>
        <mxCell id="bVtKSGikTcqubJJ4hTI0-4" value="&lt;font style=&quot;font-size: 18px;&quot;&gt;应用层&lt;/font&gt;" style="rounded=1;whiteSpace=wrap;html=1;fillColor=#dae8fc;strokeColor=#99CCFF;gradientColor=none;" vertex="1" parent="1">
          <mxGeometry x="310" y="91" width="120" height="60" as="geometry" />
        </mxCell>
        <mxCell id="bVtKSGikTcqubJJ4hTI0-18" value="" style="edgeStyle=orthogonalEdgeStyle;rounded=0;orthogonalLoop=1;jettySize=auto;html=1;" edge="1" parent="1" source="bVtKSGikTcqubJJ4hTI0-5" target="bVtKSGikTcqubJJ4hTI0-3">
          <mxGeometry relative="1" as="geometry" />
        </mxCell>
        <mxCell id="bVtKSGikTcqubJJ4hTI0-5" value="&lt;font style=&quot;font-size: 18px;&quot;&gt;网络链路层&lt;/font&gt;" style="rounded=1;whiteSpace=wrap;html=1;fillColor=#f8cecc;strokeColor=#b85450;" vertex="1" parent="1">
          <mxGeometry x="50" y="360" width="120" height="60" as="geometry" />
        </mxCell>
        <mxCell id="bVtKSGikTcqubJJ4hTI0-20" value="" style="edgeStyle=orthogonalEdgeStyle;rounded=0;orthogonalLoop=1;jettySize=auto;html=1;" edge="1" parent="1" source="bVtKSGikTcqubJJ4hTI0-7" target="bVtKSGikTcqubJJ4hTI0-4">
          <mxGeometry relative="1" as="geometry" />
        </mxCell>
        <mxCell id="bVtKSGikTcqubJJ4hTI0-21" value="" style="edgeStyle=orthogonalEdgeStyle;rounded=0;orthogonalLoop=1;jettySize=auto;html=1;" edge="1" parent="1" source="bVtKSGikTcqubJJ4hTI0-7" target="bVtKSGikTcqubJJ4hTI0-9">
          <mxGeometry relative="1" as="geometry" />
        </mxCell>
        <mxCell id="bVtKSGikTcqubJJ4hTI0-7" value="&lt;font style=&quot;font-size: 18px;&quot;&gt;传输层&lt;/font&gt;" style="rounded=1;whiteSpace=wrap;html=1;fillColor=#d5e8d4;strokeColor=#82b366;" vertex="1" parent="1">
          <mxGeometry x="310" y="181" width="120" height="60" as="geometry" />
        </mxCell>
        <mxCell id="bVtKSGikTcqubJJ4hTI0-54" value="" style="edgeStyle=orthogonalEdgeStyle;rounded=0;orthogonalLoop=1;jettySize=auto;html=1;" edge="1" parent="1" source="bVtKSGikTcqubJJ4hTI0-8" target="bVtKSGikTcqubJJ4hTI0-9">
          <mxGeometry relative="1" as="geometry" />
        </mxCell>
        <mxCell id="bVtKSGikTcqubJJ4hTI0-8" value="&lt;font style=&quot;font-size: 18px;&quot;&gt;网络链路层&lt;/font&gt;" style="rounded=1;whiteSpace=wrap;html=1;fillColor=#f8cecc;strokeColor=#b85450;" vertex="1" parent="1">
          <mxGeometry x="310" y="361" width="120" height="60" as="geometry" />
        </mxCell>
        <mxCell id="bVtKSGikTcqubJJ4hTI0-22" value="" style="edgeStyle=orthogonalEdgeStyle;rounded=0;orthogonalLoop=1;jettySize=auto;html=1;" edge="1" parent="1" source="bVtKSGikTcqubJJ4hTI0-9" target="bVtKSGikTcqubJJ4hTI0-7">
          <mxGeometry relative="1" as="geometry" />
        </mxCell>
        <mxCell id="bVtKSGikTcqubJJ4hTI0-23" value="" style="edgeStyle=orthogonalEdgeStyle;rounded=0;orthogonalLoop=1;jettySize=auto;html=1;" edge="1" parent="1" source="bVtKSGikTcqubJJ4hTI0-9" target="bVtKSGikTcqubJJ4hTI0-8">
          <mxGeometry relative="1" as="geometry" />
        </mxCell>
        <mxCell id="bVtKSGikTcqubJJ4hTI0-9" value="&lt;font style=&quot;font-size: 18px;&quot;&gt;网络层&lt;/font&gt;" style="rounded=1;whiteSpace=wrap;html=1;fillColor=#ffe6cc;strokeColor=#d79b00;" vertex="1" parent="1">
          <mxGeometry x="310" y="271" width="120" height="60" as="geometry" />
        </mxCell>
        <mxCell id="bVtKSGikTcqubJJ4hTI0-24" value="&lt;font style=&quot;font-size: 18px;&quot;&gt;以太网&lt;/font&gt;" style="ellipse;shape=cloud;whiteSpace=wrap;html=1;fillColor=#1ba1e2;strokeColor=#006EAF;fontColor=#ffffff;" vertex="1" parent="1">
          <mxGeometry x="180" y="450" width="120" height="80" as="geometry" />
        </mxCell>
        <mxCell id="bVtKSGikTcqubJJ4hTI0-28" value="" style="endArrow=classic;startArrow=classic;html=1;rounded=0;exitX=0.5;exitY=1;exitDx=0;exitDy=0;edgeStyle=orthogonalEdgeStyle;entryX=0.16;entryY=0.55;entryDx=0;entryDy=0;entryPerimeter=0;" edge="1" parent="1" target="bVtKSGikTcqubJJ4hTI0-24">
          <mxGeometry width="50" height="50" relative="1" as="geometry">
            <mxPoint x="110" y="420" as="sourcePoint" />
            <mxPoint x="190" y="494" as="targetPoint" />
            <Array as="points">
              <mxPoint x="110" y="494" />
            </Array>
          </mxGeometry>
        </mxCell>
        <mxCell id="bVtKSGikTcqubJJ4hTI0-29" value="" style="endArrow=classic;startArrow=classic;html=1;rounded=0;entryX=0.5;entryY=1;entryDx=0;entryDy=0;exitX=0.875;exitY=0.5;exitDx=0;exitDy=0;exitPerimeter=0;edgeStyle=orthogonalEdgeStyle;" edge="1" parent="1" source="bVtKSGikTcqubJJ4hTI0-24" target="bVtKSGikTcqubJJ4hTI0-8">
          <mxGeometry width="50" height="50" relative="1" as="geometry">
            <mxPoint x="330" y="490" as="sourcePoint" />
            <mxPoint x="380" y="440" as="targetPoint" />
          </mxGeometry>
        </mxCell>
      </root>
    </mxGraphModel>
  </diagram>
</mxfile>
